# xmcd CD database file
#
# Track frame offsets:
#	150
#	17802
#	36867
#	47752
#	61752
#	83095
#	91980
#	104590
#	126775
#	136612
#	152055
#	165617
#
# Disc length: 2402 seconds
#
# Revision: 3
# Processed by: cddbd v1.5.2PL0 Copyright (c) Steve Scherf et al.
# Submitted via: CDex 1.70beta2
#
DISCID=9009600c
DTITLE=Bar-J Wranglers - Cowboy's Dreams
DYEAR=1900
DGENRE=Cowboy
TTITLE0=Ghost Riders in the Sky
TTITLE1=Streets of Laredo
TTITLE2=Chime Bells
TTITLE3=Red River Valley
TTITLE4=Night Rider's Lament
TTITLE5=Alleluia
TTITLE6=Texas Plains
TTITLE7=Strawberry Roan
TTITLE8=Back in the Saddle
TTITLE9=Colorado
TTITLE10=Cowboy Camp Meetin'
TTITLE11=Cowboy's Dream
EXTD=
EXTT0=
EXTT1=
EXTT2=
EXTT3=
EXTT4=
EXTT5=
EXTT6=
EXTT7=
EXTT8=
EXTT9=
EXTT10=
EXTT11=
PLAYORDER=
